<svg id="Layer_2" data-name="Layer 2" xmlns="http://www.w3.org/2000/svg" viewBox="0 0 664.18 681"><defs><style>.cls-1{fill:#f7f7ff;}.cls-2{fill:#577399;}</style></defs><path id="bF" class="cls-1" d="M123.94,449.86c1.4,73.81,99.39,174.21,247.7,177.23,125.26,2.56,227-56.07,276.92-83.57C616.72,583.55,547.31,688,369.05,688,71,688,123.94,449.86,123.94,449.86Z" transform="translate(-21.28 -7)"/><g id="LINE"><path class="cls-2" d="M212.38,614.89a263.28,263.28,0,0,0,62.81,24.63A345.07,345.07,0,0,0,342,649.14c11.24.56,22.5.74,33.76.44,5.63-.08,11.26-.37,16.88-.6s11.23-.66,16.84-1.15c11.2-.93,22.38-2.18,33.49-3.86s22.13-3.78,33.05-6.32a348,348,0,0,0,63.56-21.12,292.41,292.41,0,0,0,29.59-15.44,258,258,0,0,0,27.39-18.89,233.6,233.6,0,0,0,62.88-75.93c2.54-4.88,4.9-9.86,7.13-14.91s4.24-10.14,6.42-15.51a6.5,6.5,0,1,1,12,4.89l-.05.14,0,.09c-2.2,5-4.49,10.4-7,15.59S672.84,506.94,670,512A244.48,244.48,0,0,1,602.2,589.6a266.81,266.81,0,0,1-28.85,18.77,299.66,299.66,0,0,1-30.84,15,354.8,354.8,0,0,1-65.33,19.78c-11.14,2.28-22.36,4.08-33.62,5.49s-22.56,2.34-33.87,3c-5.66.34-11.32.5-17,.69s-11.32.22-17,.15c-11.31,0-22.64-.3-33.93-1.08a346.44,346.44,0,0,1-66.91-10.8A263.85,263.85,0,0,1,212.38,614.89Z" transform="translate(-21.28 -7)"/></g><path class="cls-1" d="M580.49,130.68c-8.33-59.41-62-106.46-130.42-117-24.43-3.78-39.18-7-96.86-6.59s-114.92,17.65-165,47.57l-9.91,61.61L164.8,69.86c-74.57,53-129.61,135.53-141.13,232.63C11.14,408.08,51.44,485.92,64.06,511.14c6.35,12.68,27.37,41.9,60.53,77.66h0C29.28,287.07,345.72,249.22,432.45,244.5l-18.29-54.79,80.54,46.66c43.88-14.27,86.9-47.78,86.9-90.05A112.89,112.89,0,0,0,580.49,130.68Z" transform="translate(-21.28 -7)"/><g id="LINE-2" data-name="LINE"><path class="cls-2" d="M462.06,90.15c-29.49,1.12-58.8,3.83-87.6,9.18-7.2,1.28-14.37,2.74-21.51,4.3s-14.22,3.32-21.26,5.26-14,4-21,6.14-13.83,4.55-20.67,7c-3.42,1.24-6.81,2.56-10.2,3.86s-6.76,2.68-10.09,4.12c-6.71,2.8-13.32,5.79-19.87,8.9a422.18,422.18,0,0,0-38.18,20.74c-6.15,3.81-12.24,7.71-18.17,11.84-3,2-5.89,4.18-8.83,6.28s-5.79,4.31-8.6,6.57-5.63,4.51-8.43,6.78-5.52,4.63-8.19,7.05-5.33,4.84-8,7.29-5.19,5-7.69,7.57c-5.06,5.12-10,10.38-14.62,15.85s-9.19,11-13.41,16.84-8.31,11.69-12.11,17.77-7.28,12.34-10.57,18.7A238,238,0,0,0,77,322a270.71,270.71,0,0,0-8.82,42.18c-.9,7.16-1.62,14.35-2,21.58-.25,3.6-.3,7.22-.42,10.84s-.09,7.24,0,10.86.21,7.25.34,10.88.43,7.24.79,10.86c.64,7.23,1.52,14.46,2.7,21.64a306.39,306.39,0,0,0,9.82,42.66q3.19,10.5,7.24,20.75c2.67,6.85,5.7,13.55,9,20.14a200.68,200.68,0,0,1-11.1-19.2c-3.34-6.62-6.35-13.41-9.12-20.3a292.56,292.56,0,0,1-13.14-42.65c-1.66-7.28-2.94-14.64-4-22-.56-3.7-1-7.42-1.42-11.13s-.75-7.45-1-11.19-.42-7.49-.57-11.24-.16-7.5-.07-11.25.18-7.51.33-11.26c.07-1.88.24-3.76.36-5.63s.26-3.75.46-5.62l.55-5.62.7-5.6.36-2.8.44-2.79.88-5.58c1.33-7.4,2.91-14.84,4.9-22.16a221.54,221.54,0,0,1,7.05-21.61c2.7-7.09,5.7-14.06,9-20.86s7-13.44,10.91-19.93,8.13-12.76,12.55-18.9,9.15-12,14-17.79,10-11.33,15.3-16.68c2.63-2.7,5.38-5.29,8.09-7.91s5.52-5.12,8.37-7.59c5.65-5,11.44-9.79,17.43-14.34,3-2.32,6-4.51,9.05-6.74s6.12-4.35,9.26-6.42c6.21-4.22,12.58-8.2,19-12A409.89,409.89,0,0,1,286.21,111,465.75,465.75,0,0,1,462.06,90.15Z" transform="translate(-21.28 -7)"/></g></svg>